<svg width="24" height="25" viewBox="0 0 24 25" fill="none" xmlns="http://www.w3.org/2000/svg">
<path d="M9 5.07996H7C5.89617 5.07996 5 5.97613 5 7.07996V17.08C5 18.1838 5.89617 19.08 7 19.08H15C16.1038 19.08 17 18.1838 17 17.08V7.07996C17 5.97613 16.1038 5.07996 15 5.07996H13M9 5.07996C9 6.18379 9.89617 7.07996 11 7.07996H13C14.1038 7.07996 15 6.18379 15 5.07996M9 5.07996C9 3.97613 9.89617 3.07996 11 3.07996H13C14.1038 3.07996 15 3.97613 15 5.07996" stroke="white" stroke-width="2" stroke-linecap="round" stroke-linejoin="round"/>
</svg>
