<svg width="24" height="25" viewBox="0 0 24 25" fill="none" xmlns="http://www.w3.org/2000/svg">
<path d="M10.325 4.39696C10.751 2.64096 13.249 2.64096 13.675 4.39696C13.8046 4.93202 14.182 5.37298 14.6907 5.5837C15.1993 5.79442 15.7779 5.74956 16.248 5.46296C17.791 4.52296 19.558 6.28896 18.618 7.83296C18.3318 8.30281 18.2871 8.88104 18.4975 9.38934C18.708 9.89763 19.1484 10.275 19.683 10.405C21.439 10.831 21.439 13.329 19.683 13.755C19.1479 13.8846 18.707 14.262 18.4963 14.7706C18.2855 15.2792 18.3304 15.8579 18.617 16.328C19.557 17.871 17.791 19.638 16.247 18.698C15.7771 18.4118 15.1989 18.367 14.6906 18.5775C14.1823 18.788 13.805 19.2284 13.675 19.763C13.249 21.519 10.751 21.519 10.325 19.763C10.1954 19.2279 9.81797 18.7869 9.30935 18.5762C8.80073 18.3655 8.22206 18.4104 7.752 18.697C6.209 19.637 4.442 17.871 5.382 16.327C5.66819 15.8571 5.71295 15.2789 5.50247 14.7706C5.292 14.2623 4.85157 13.885 4.317 13.755C2.561 13.329 2.561 10.831 4.317 10.405C4.85206 10.2753 5.29302 9.89792 5.50375 9.3893C5.71447 8.88069 5.6696 8.30201 5.383 7.83196C4.443 6.28896 6.209 4.52196 7.753 5.46196C8.749 6.06996 10.049 5.53196 10.325 4.39696" stroke="white" stroke-width="2" stroke-linecap="round" stroke-linejoin="round"/>
<path d="M15 12.08C15 13.7357 13.6557 15.08 12 15.08C10.3443 15.08 9 13.7357 9 12.08C9 10.4242 10.3443 9.07996 12 9.07996C13.6557 9.07996 15 10.4242 15 12.08" stroke="white" stroke-width="2" stroke-linecap="round" stroke-linejoin="round"/>
</svg>
