<svg width="24" height="25" viewBox="0 0 24 25" fill="none" xmlns="http://www.w3.org/2000/svg">
<path d="M9 19.08V13.08C9 11.9761 8.10383 11.08 7 11.08H5C3.89617 11.08 3 11.9761 3 13.08V19.08C3 20.1838 3.89617 21.08 5 21.08H7C8.10383 21.08 9 20.1838 9 19.08M9 19.08V9.07996C9 7.97613 9.89617 7.07996 11 7.07996H13C14.1038 7.07996 15 7.97613 15 9.07996V19.08M9 19.08C9 20.1838 9.89617 21.08 11 21.08H13C14.1038 21.08 15 20.1838 15 19.08M15 19.08V5.07996C15 3.97613 15.8962 3.07996 17 3.07996H19C20.1038 3.07996 21 3.97613 21 5.07996V19.08C21 20.1838 20.1038 21.08 19 21.08H17C15.8962 21.08 15 20.1838 15 19.08" stroke="white" stroke-width="2" stroke-linecap="round" stroke-linejoin="round"/>
</svg>
